# xmcd CD database file
#
# Track frame offsets:
#	182
#	9657
#	21445
#	31582
#	40757
#	53162
#	64555
#	73365
#	81482
#	92442
#	105150
#	113615
#	123427
#	133650
#	148240
#	162215
#	170582
#	181352
#
# Disc length: 2637 seconds
#
# Revision: 2
# Processed by: cddbd v1.4PL0 Copyright (c) Steve Scherf et al.
# Submitted via: CDex 1.50
#
DISCID=ef0a4b12
DTITLE=Elvis Presley - The Number One Hits
DYEAR=1900
DGENRE=Rock and Roll
TTITLE0=Heartbreak Hotel
TTITLE1=I Want You, I Need You, I Love You
TTITLE2=Hound Dog
TTITLE3=Don't Be Cruel
TTITLE4=Love Me Tender
TTITLE5=Too Much
TTITLE6=All Shook Up
TTITLE7=Teddy Bear
TTITLE8=Jailhouse Rock
TTITLE9=Don't
TTITLE10=Hard Headed Woman
TTITLE11=A Big Hunk O'Love
TTITLE12=Stuck on You
TTITLE13=It's Now Or Never
TTITLE14=Are You Lonesome Tonight?
TTITLE15=Surrender
TTITLE16=Good Luck Charm
TTITLE17=Suspicious Minds
EXTD=
EXTT0=
EXTT1=
EXTT2=
EXTT3=
EXTT4=
EXTT5=
EXTT6=
EXTT7=
EXTT8=
EXTT9=
EXTT10=
EXTT11=
EXTT12=
EXTT13=
EXTT14=
EXTT15=
EXTT16=
EXTT17=
PLAYORDER=
